<?xml version="1.0" encoding="UTF-8" standalone="no"?>
<!DOCTYPE svg PUBLIC "-//W3C//DTD SVG 1.1//EN"
 "http://www.w3.org/Graphics/SVG/1.1/DTD/svg11.dtd">
<!-- Generated by graphviz version 2.42.4 (0)
 -->
<!-- Pages: 1 -->
<svg width="262pt" height="404pt"
 viewBox="0.00 0.00 262.00 404.00" xmlns="http://www.w3.org/2000/svg" xmlns:xlink="http://www.w3.org/1999/xlink">
<g id="graph0" class="graph" transform="scale(1 1) rotate(0) translate(4 400)">
<polygon fill="white" stroke="transparent" points="-4,4 -4,-400 258,-400 258,4 -4,4"/>
<!-- aaa -->
<g id="node1" class="node">
<title>aaa</title>
<ellipse fill="none" stroke="black" cx="138" cy="-378" rx="27" ry="18"/>
<text text-anchor="middle" x="138" y="-374.3" font-family="Times,serif" font-size="14.00">aaa</text>
</g>
<!-- you -->
<g id="node2" class="node">
<title>you</title>
<ellipse fill="none" stroke="black" cx="101" cy="-306" rx="27.1" ry="18"/>
<text text-anchor="middle" x="101" y="-302.3" font-family="Times,serif" font-size="14.00">you</text>
</g>
<!-- aaa&#45;&gt;you -->
<g id="edge1" class="edge">
<title>aaa&#45;&gt;you</title>
<path fill="none" stroke="black" d="M129.42,-360.76C124.94,-352.28 119.35,-341.71 114.32,-332.2"/>
<polygon fill="black" stroke="black" points="117.3,-330.35 109.54,-323.15 111.11,-333.62 117.3,-330.35"/>
</g>
<!-- hhh -->
<g id="node3" class="node">
<title>hhh</title>
<ellipse fill="none" stroke="black" cx="175" cy="-306" rx="28.7" ry="18"/>
<text text-anchor="middle" x="175" y="-302.3" font-family="Times,serif" font-size="14.00">hhh</text>
</g>
<!-- aaa&#45;&gt;hhh -->
<g id="edge2" class="edge">
<title>aaa&#45;&gt;hhh</title>
<path fill="none" stroke="black" d="M146.58,-360.76C151,-352.4 156.49,-342.02 161.47,-332.61"/>
<polygon fill="black" stroke="black" points="164.63,-334.11 166.21,-323.63 158.44,-330.84 164.63,-334.11"/>
</g>
<!-- bbb -->
<g id="node4" class="node">
<title>bbb</title>
<ellipse fill="none" stroke="black" cx="37" cy="-234" rx="28.7" ry="18"/>
<text text-anchor="middle" x="37" y="-230.3" font-family="Times,serif" font-size="14.00">bbb</text>
</g>
<!-- you&#45;&gt;bbb -->
<g id="edge3" class="edge">
<title>you&#45;&gt;bbb</title>
<path fill="none" stroke="black" d="M87.43,-290.15C78.89,-280.82 67.7,-268.57 58.03,-258"/>
<polygon fill="black" stroke="black" points="60.33,-255.33 51,-250.31 55.16,-260.05 60.33,-255.33"/>
</g>
<!-- ccc -->
<g id="node5" class="node">
<title>ccc</title>
<ellipse fill="none" stroke="black" cx="111" cy="-234" rx="27" ry="18"/>
<text text-anchor="middle" x="111" y="-230.3" font-family="Times,serif" font-size="14.00">ccc</text>
</g>
<!-- you&#45;&gt;ccc -->
<g id="edge4" class="edge">
<title>you&#45;&gt;ccc</title>
<path fill="none" stroke="black" d="M103.42,-288.05C104.52,-280.35 105.85,-271.03 107.09,-262.36"/>
<polygon fill="black" stroke="black" points="110.58,-262.67 108.53,-252.28 103.65,-261.68 110.58,-262.67"/>
</g>
<!-- hhh&#45;&gt;ccc -->
<g id="edge14" class="edge">
<title>hhh&#45;&gt;ccc</title>
<path fill="none" stroke="black" d="M161.43,-290.15C152.69,-280.6 141.17,-267.99 131.34,-257.25"/>
<polygon fill="black" stroke="black" points="133.88,-254.84 124.55,-249.82 128.72,-259.57 133.88,-254.84"/>
</g>
<!-- fff -->
<g id="node8" class="node">
<title>fff</title>
<ellipse fill="none" stroke="black" cx="175" cy="-162" rx="27" ry="18"/>
<text text-anchor="middle" x="175" y="-158.3" font-family="Times,serif" font-size="14.00">fff</text>
</g>
<!-- hhh&#45;&gt;fff -->
<g id="edge15" class="edge">
<title>hhh&#45;&gt;fff</title>
<path fill="none" stroke="black" d="M175,-287.87C175,-263.67 175,-219.21 175,-190.39"/>
<polygon fill="black" stroke="black" points="178.5,-190.19 175,-180.19 171.5,-190.19 178.5,-190.19"/>
</g>
<!-- iii -->
<g id="node11" class="node">
<title>iii</title>
<ellipse fill="none" stroke="black" cx="227" cy="-90" rx="27" ry="18"/>
<text text-anchor="middle" x="227" y="-86.3" font-family="Times,serif" font-size="14.00">iii</text>
</g>
<!-- hhh&#45;&gt;iii -->
<g id="edge16" class="edge">
<title>hhh&#45;&gt;iii</title>
<path fill="none" stroke="black" d="M180.45,-288.16C188.03,-264.29 201.87,-219.15 211,-180 215.78,-159.49 219.95,-136.03 222.83,-118.35"/>
<polygon fill="black" stroke="black" points="226.33,-118.59 224.45,-108.17 219.42,-117.49 226.33,-118.59"/>
</g>
<!-- ddd -->
<g id="node6" class="node">
<title>ddd</title>
<ellipse fill="none" stroke="black" cx="101" cy="-162" rx="28.7" ry="18"/>
<text text-anchor="middle" x="101" y="-158.3" font-family="Times,serif" font-size="14.00">ddd</text>
</g>
<!-- bbb&#45;&gt;ddd -->
<g id="edge5" class="edge">
<title>bbb&#45;&gt;ddd</title>
<path fill="none" stroke="black" d="M50.57,-218.15C59.11,-208.82 70.3,-196.57 79.97,-186"/>
<polygon fill="black" stroke="black" points="82.84,-188.05 87,-178.31 77.67,-183.33 82.84,-188.05"/>
</g>
<!-- eee -->
<g id="node7" class="node">
<title>eee</title>
<ellipse fill="none" stroke="black" cx="27" cy="-162" rx="27" ry="18"/>
<text text-anchor="middle" x="27" y="-158.3" font-family="Times,serif" font-size="14.00">eee</text>
</g>
<!-- bbb&#45;&gt;eee -->
<g id="edge6" class="edge">
<title>bbb&#45;&gt;eee</title>
<path fill="none" stroke="black" d="M34.58,-216.05C33.48,-208.35 32.15,-199.03 30.91,-190.36"/>
<polygon fill="black" stroke="black" points="34.35,-189.68 29.47,-180.28 27.42,-190.67 34.35,-189.68"/>
</g>
<!-- ccc&#45;&gt;ddd -->
<g id="edge7" class="edge">
<title>ccc&#45;&gt;ddd</title>
<path fill="none" stroke="black" d="M108.58,-216.05C107.48,-208.35 106.15,-199.03 104.91,-190.36"/>
<polygon fill="black" stroke="black" points="108.35,-189.68 103.47,-180.28 101.42,-190.67 108.35,-189.68"/>
</g>
<!-- ccc&#45;&gt;eee -->
<g id="edge8" class="edge">
<title>ccc&#45;&gt;eee</title>
<path fill="none" stroke="black" d="M94.8,-219.5C82.37,-209.14 65.01,-194.67 50.97,-182.97"/>
<polygon fill="black" stroke="black" points="53.07,-180.17 43.15,-176.46 48.59,-185.55 53.07,-180.17"/>
</g>
<!-- ccc&#45;&gt;fff -->
<g id="edge9" class="edge">
<title>ccc&#45;&gt;fff</title>
<path fill="none" stroke="black" d="M124.57,-218.15C133.31,-208.6 144.83,-195.99 154.66,-185.25"/>
<polygon fill="black" stroke="black" points="157.28,-187.57 161.45,-177.82 152.12,-182.84 157.28,-187.57"/>
</g>
<!-- ggg -->
<g id="node9" class="node">
<title>ggg</title>
<ellipse fill="none" stroke="black" cx="103" cy="-90" rx="28.7" ry="18"/>
<text text-anchor="middle" x="103" y="-86.3" font-family="Times,serif" font-size="14.00">ggg</text>
</g>
<!-- ddd&#45;&gt;ggg -->
<g id="edge10" class="edge">
<title>ddd&#45;&gt;ggg</title>
<path fill="none" stroke="black" d="M101.49,-143.7C101.71,-135.98 101.98,-126.71 102.23,-118.11"/>
<polygon fill="black" stroke="black" points="105.72,-118.2 102.51,-108.1 98.73,-118 105.72,-118.2"/>
</g>
<!-- out -->
<g id="node10" class="node">
<title>out</title>
<ellipse fill="none" stroke="black" cx="131" cy="-18" rx="27" ry="18"/>
<text text-anchor="middle" x="131" y="-14.3" font-family="Times,serif" font-size="14.00">out</text>
</g>
<!-- eee&#45;&gt;out -->
<g id="edge11" class="edge">
<title>eee&#45;&gt;out</title>
<path fill="none" stroke="black" d="M31.54,-143.97C37.17,-125.05 48.15,-94.22 65,-72 75.46,-58.21 90.27,-45.88 103.21,-36.6"/>
<polygon fill="black" stroke="black" points="105.55,-39.24 111.8,-30.68 101.58,-33.47 105.55,-39.24"/>
</g>
<!-- fff&#45;&gt;out -->
<g id="edge12" class="edge">
<title>fff&#45;&gt;out</title>
<path fill="none" stroke="black" d="M169.78,-144.15C162.24,-119.81 148.22,-74.57 139.26,-45.67"/>
<polygon fill="black" stroke="black" points="142.52,-44.34 136.21,-35.82 135.83,-46.41 142.52,-44.34"/>
</g>
<!-- ggg&#45;&gt;out -->
<g id="edge13" class="edge">
<title>ggg&#45;&gt;out</title>
<path fill="none" stroke="black" d="M109.64,-72.41C112.91,-64.22 116.94,-54.14 120.62,-44.95"/>
<polygon fill="black" stroke="black" points="123.95,-46.05 124.41,-35.47 117.45,-43.45 123.95,-46.05"/>
</g>
<!-- iii&#45;&gt;out -->
<g id="edge17" class="edge">
<title>iii&#45;&gt;out</title>
<path fill="none" stroke="black" d="M209.39,-76.16C194.64,-65.41 173.39,-49.91 156.73,-37.76"/>
<polygon fill="black" stroke="black" points="158.64,-34.82 148.5,-31.76 154.51,-40.48 158.64,-34.82"/>
</g>
</g>
</svg>
